<svg width="12" height="12" viewBox="0 0 12 12" fill="none" xmlns="http://www.w3.org/2000/svg">
<path d="M10.875 9.75C10.875 9.84946 10.8355 9.94484 10.7652 10.0152C10.6948 10.0855 10.5995 10.125 10.5 10.125H1.5C1.40054 10.125 1.30516 10.0855 1.23483 10.0152C1.16451 9.94484 1.125 9.84946 1.125 9.75C1.125 9.65054 1.16451 9.55516 1.23483 9.48483C1.30516 9.41451 1.40054 9.375 1.5 9.375H1.875V6.375C1.875 6.27554 1.91451 6.18016 1.98484 6.10983C2.05516 6.03951 2.15054 6 2.25 6H3.375C3.47446 6 3.56984 6.03951 3.64016 6.10983C3.71049 6.18016 3.75 6.27554 3.75 6.375V9.375H4.5V4.125C4.5 4.02554 4.53951 3.93016 4.60984 3.85984C4.68016 3.78951 4.77554 3.75 4.875 3.75H6.375C6.47446 3.75 6.56984 3.78951 6.64017 3.85984C6.71049 3.93016 6.75 4.02554 6.75 4.125V9.375H7.5V1.875C7.5 1.77554 7.53951 1.68016 7.60983 1.60984C7.68016 1.53951 7.77554 1.5 7.875 1.5H9.75C9.84946 1.5 9.94484 1.53951 10.0152 1.60984C10.0855 1.68016 10.125 1.77554 10.125 1.875V9.375H10.5C10.5995 9.375 10.6948 9.41451 10.7652 9.48483C10.8355 9.55516 10.875 9.65054 10.875 9.75Z" fill="#667085"/>
</svg>
